<?xml version="1.0" encoding="iso-8859-1"?>
<!-- Uploaded to: SVG Repo, www.svgrepo.com, Generator: SVG Repo Mixer Tools -->
<!DOCTYPE svg PUBLIC "-//W3C//DTD SVG 1.1//EN" "http://www.w3.org/Graphics/SVG/1.1/DTD/svg11.dtd">
<svg fill="#000000" version="1.1" id="Capa_1" xmlns="http://www.w3.org/2000/svg" xmlns:xlink="http://www.w3.org/1999/xlink" 
	 width="800px" height="800px" viewBox="0 0 31.427 31.427"
	 xml:space="preserve">
<g>
	<g>
		<path d="M13.513,28.015H2.186V8.924h7.057V1.867h13.361V12.05c0.641,0.044,1.264,0.147,1.867,0.305V0H8.057l-7.74,8.171v21.712
			h14.869C14.555,29.33,13.991,28.705,13.513,28.015z M7.373,3.436v3.621H3.944L7.373,3.436z"/>
		<path d="M15.649,14.174H4.423v2.104h9.201C14.195,15.483,14.877,14.775,15.649,14.174z"/>
		<path d="M4.423,18.331v2.104h7.441c0.13-0.73,0.331-1.437,0.607-2.104H4.423z"/>
		<path d="M4.423,22.675v2.104h7.613c-0.176-0.678-0.283-1.381-0.315-2.104H4.423z"/>
		<path d="M29.551,17.097l-0.274,0.089l-1.468,0.129l-0.414,0.662l-0.301-0.095l-1.168-1.054l-0.17-0.547l-0.226-0.583l-0.733-0.659
			l-0.865-0.169l-0.02,0.396l0.848,0.828l0.414,0.489l-0.467,0.244l-0.381-0.112l-0.568-0.238l0.02-0.457l-0.747-0.309l-0.248,1.08
			l-0.752,0.17l0.074,0.602l0.979,0.188l0.17-0.96l0.81,0.119l0.376,0.22h0.604l0.414,0.828l1.096,1.11l-0.079,0.434l-0.884-0.113
			l-1.525,0.771l-1.1,1.318l-0.145,0.582h-0.395l-0.735-0.339l-0.714,0.339l0.178,0.754l0.311-0.358l0.547-0.019l-0.038,0.678
			l0.452,0.132l0.453,0.508l0.737-0.207l0.843,0.132l0.979,0.264l0.489,0.058l0.828,0.94l1.6,0.941l-1.034,1.977l-1.092,0.508
			l-0.415,1.13l-1.58,1.055l-0.168,0.609c4.039-0.974,7.044-4.603,7.044-8.94C31.108,20.324,30.534,18.562,29.551,17.097z"/>
		<path d="M22.963,27.031l-0.67-1.243l0.614-1.283l-0.614-0.185l-0.69-0.693l-1.531-0.344l-0.508-1.063v0.632h-0.226l-1.318-1.789
			v-1.47l-0.968-1.571l-1.535,0.274h-1.034l-0.521-0.341l0.664-0.527l-0.662,0.153c-0.798,1.362-1.264,2.946-1.264,4.64
			c0,5.084,4.121,9.206,9.205,9.206c0.393,0,0.775-0.032,1.155-0.08l-0.097-1.114c0,0,0.422-1.656,0.422-1.713
			C23.385,28.462,22.963,27.031,22.963,27.031z"/>
		<path d="M16.12,15.981l1.636-0.226l0.754-0.414l0.848,0.245l1.355-0.076l0.463-0.73l0.679,0.112l1.644-0.154l0.453-0.499
			l0.639-0.427l0.903,0.135l0.33-0.048c-1.19-0.561-2.516-0.885-3.919-0.885c-2.857,0-5.412,1.303-7.1,3.348h0.004L16.12,15.981z
			 M22.293,13.928l0.94-0.518l0.604,0.349l-0.875,0.665l-0.834,0.084l-0.375-0.243L22.293,13.928z M19.508,14.004l0.414,0.174
			l0.545-0.174l0.295,0.513l-1.254,0.329l-0.604-0.352C18.904,14.493,19.494,14.114,19.508,14.004z"/>
	</g>
</g>
</svg>