<?xml version="1.0" encoding="iso-8859-1"?>
<!-- Uploaded to: SVG Repo, www.svgrepo.com, Generator: SVG Repo Mixer Tools -->
<!DOCTYPE svg PUBLIC "-//W3C//DTD SVG 1.1//EN" "http://www.w3.org/Graphics/SVG/1.1/DTD/svg11.dtd">
<svg fill="#000000" height="800px" width="800px" version="1.1" id="Capa_1" xmlns="http://www.w3.org/2000/svg" xmlns:xlink="http://www.w3.org/1999/xlink" 
	 viewBox="0 0 460.425 460.425" xml:space="preserve">
<g id="XMLID_531_">
	<path id="XMLID_533_" d="M143.317,128.936c-16.159,3.974-26.036,20.295-22.063,36.454c2.809,11.422,22.469,91.363,25.297,102.862
		h74.708c6.729,0,13.302,0.671,19.673,1.916c0,0,65.15-12.881,65.151-12.881l11.321-7.794l6.949,9.405
		c7.476,1.939,98.025,48.497,98.527,48.773l-63.293-88l-31.766,6.064c-5.339,6.408-12.788,11.223-21.519,13.256
		c-88.023,20.51-81.936,19.436-87.987,19.436c-10.174,0-19.857-3.841-27.267-10.816c-2.328-2.192,1.256,2.832-48.694-72.613
		l62.047,58.429c4.887,4.597,11.872,6.54,18.515,4.99c0.001,0,0.002,0,0.002,0l78.962-18.398c5.89-1.372,10.991-5.301,13.737-11.114
		c26.4-5.04,10.861-2.073,61.838-11.805c6.805-1.298,11.272-7.87,9.972-14.677c-1.297-6.788-7.89-11.265-14.678-9.972
		c-28.053,5.355-31.731,6.057-62.776,11.984c-4.272-3.426-9.706-4.973-15.109-4.324c-1.69,0.204,3.417-0.927-70.56,16.309
		l-56.189-52.912l59.009,32.251l13.301-3.099l-8.483-34.492c-3.974-16.159-20.295-26.036-36.453-22.063L143.317,128.936z"/>
	<circle id="XMLID_1001_" cx="155.791" cy="66.184" r="44.602"/>
	<path id="XMLID_1004_" d="M221.259,289.581h-99.157c-2.163-8.808-45.073-183.569-46.816-190.67
		c-5.019-20.443-25.633-32.97-46.091-28.01c-9.859,2.391-18.363,8.605-23.634,17.273c-5.271,8.668-6.878,19.077-4.465,28.931
		c73.508,300.193,68.658,279.346,68.658,282.22c0,7.3,5.918,13.217,13.217,13.217h7.473v15.326c0,2.217,0.663,4.277,1.793,6.004
		c1.961,2.996,5.342,4.98,9.191,4.98h27.507c3.849,0,7.229-1.983,9.191-4.98c1.13-1.726,1.793-3.786,1.793-6.004v-15.326h81.017
		v15.326c0,2.217,0.663,4.277,1.793,6.004c1.961,2.996,5.342,4.98,9.191,4.98h27.507c3.849,0,7.229-1.983,9.191-4.98
		c1.13-1.726,1.793-3.786,1.793-6.004v-15.326h18.706c7.3,0,13.217-5.917,13.217-13.217v-28.673
		C302.331,325.879,266.034,289.581,221.259,289.581z"/>
	<path id="XMLID_1006_" d="M450.257,376.706h-7.331h-36.444c6.202-2.076,11.632-6.473,14.829-12.762
		c6.463-12.715,1.395-28.26-11.318-34.723l-86.724-44.084c-3.629-1.846-7.642-2.804-11.711-2.804c-0.075,0-0.151,0-0.227,0.001
		l-37.738,0.345c21.703,12.959,38.227,33.711,45.689,58.37l67.306,34.214c1.132,0.576,2.289,1.049,3.457,1.444h-27.099
		c-5.402,0-9.808,4.217-10.136,9.536c-0.013,0.21-0.032,0.419-0.032,0.632v41.811c0,5.616,4.552,10.168,10.168,10.168h87.312
		c5.616,0,10.168-4.553,10.168-10.168v-41.811C460.425,381.259,455.873,376.706,450.257,376.706z"/>
</g>
</svg>